<svg width="72" height="72" viewBox="0 0 72 72" fill="none" xmlns="http://www.w3.org/2000/svg">
<path d="M59.7453 20.3745L61.1554 16.9174C61.1554 16.9174 59.3814 15.0068 57.1979 12.8234C55.0144 10.6399 50.42 11.9136 50.42 11.9136L45.1888 6H26.8112L21.5345 11.9591C21.5345 11.9591 16.9401 10.6854 14.7566 12.8688C12.5732 15.0523 10.7991 16.9629 10.7991 16.9629L12.2093 20.42L10.4352 25.5148C10.4352 25.5148 15.7119 45.439 16.3033 47.8954C17.5315 52.6717 18.3503 54.5368 21.8074 56.9932C25.2646 59.4496 31.4966 63.6346 32.5428 64.2714C33.5436 64.9083 34.8628 66 36 66C37.1372 66 38.4109 64.9083 39.4572 64.2714C40.4579 63.6346 46.7354 59.4041 50.1926 56.9932C53.6497 54.5823 54.4685 52.7172 55.6967 47.8954C56.3336 45.439 61.5648 25.5148 61.5648 25.5148L59.7453 20.3745Z" fill="url(#paint0_linear)"/>
<path d="M48.9643 15.7347C48.9643 15.7347 55.6967 23.8772 55.6967 25.6513C55.6967 27.4253 54.8324 27.8347 53.9681 28.7445C53.1038 29.6543 49.3737 33.6118 48.9188 34.1122C48.4185 34.6126 47.4632 35.3859 48.0091 36.7961C48.6004 38.1607 49.4647 39.9348 48.5094 41.7544C47.5542 43.5284 45.9166 44.7566 44.8703 44.5292C43.8241 44.3472 41.3222 43.0281 40.4124 42.4367C39.5026 41.8453 36.6368 39.4799 36.6368 38.5701C36.6368 37.6604 39.6391 36.0228 40.1849 35.6588C40.7308 35.2949 43.2327 33.8393 43.2782 33.2934C43.3237 32.7475 43.3237 32.5656 42.5504 31.1554C41.8225 29.7453 40.4579 27.8802 40.6853 26.652C40.9128 25.4238 43.0507 24.787 44.5974 24.1956C46.144 23.6043 49.1008 22.5125 49.4647 22.3306C49.8286 22.1486 49.7376 22.0121 48.6004 21.8757C47.4632 21.7847 44.3244 21.3298 42.8688 21.7392C41.4131 22.1486 39.0022 22.74 38.7748 23.0584C38.5928 23.3768 38.4109 23.3768 38.5928 24.514C38.7748 25.6058 39.8665 30.9735 39.9575 31.9287C40.0485 32.884 40.2759 33.5209 39.2297 33.7483C38.2289 33.9757 36.5003 34.3851 35.909 34.3851C35.3176 34.3851 33.589 33.9757 32.5883 33.7483C31.5875 33.5209 31.7695 32.884 31.8605 31.9287C31.9514 30.9735 32.9977 25.6513 33.2251 24.514C33.4071 23.4223 33.2706 23.3768 33.0432 23.0584C32.8612 22.74 30.4048 22.1486 28.9492 21.7392C27.4935 21.3298 24.3548 21.7392 23.2175 21.8757C22.0803 21.9666 21.9893 22.1486 22.3533 22.3306C22.7172 22.5125 25.674 23.6043 27.2206 24.1956C28.7672 24.787 30.9052 25.4238 31.1326 26.652C31.3601 27.8802 30.0409 29.7453 29.2676 31.1554C28.5398 32.5656 28.4943 32.7021 28.5398 33.2934C28.5852 33.8393 31.0871 35.2949 31.633 35.6588C32.1789 36.0228 35.1812 37.6604 35.1812 38.5701C35.1812 39.4799 32.3153 41.8453 31.4056 42.4367C30.4958 43.0281 28.0394 44.3018 26.9476 44.5292C25.9014 44.7112 24.2638 43.5284 23.3085 41.7544C22.3533 39.9803 23.2175 38.2062 23.8089 36.7961C24.4003 35.4314 23.3995 34.6581 22.8991 34.1122C22.3987 33.6118 18.7141 29.6543 17.8498 28.7445C16.9856 27.8347 16.1667 27.3798 16.1667 25.6513C16.1667 23.9227 22.8991 15.7347 22.8991 15.7347C22.8991 15.7347 28.5852 16.8264 29.3586 16.8264C30.1319 16.8264 31.7695 16.1895 33.3161 15.6892C34.8627 15.1888 35.8635 15.1888 35.8635 15.1888C35.8635 15.1888 36.8642 15.1888 38.4109 15.6892C39.9575 16.1895 41.5951 16.8264 42.3684 16.8264C43.1417 16.8264 48.9643 15.7347 48.9643 15.7347ZM43.915 46.8946C44.3244 47.1676 44.097 47.6679 43.6876 47.8954C43.3237 48.1683 38.1834 52.1259 37.7285 52.5807C37.2282 53.0356 36.5003 53.718 36 53.718C35.4996 53.718 34.7718 52.9902 34.2714 52.5807C33.771 52.1259 28.6762 48.1683 28.3123 47.8954C27.9484 47.6224 27.6755 47.1221 28.0849 46.8946C28.4943 46.6217 29.8134 45.9848 31.5875 45.0296C33.4071 44.0743 35.636 43.301 36 43.301C36.3639 43.301 38.5928 44.0743 40.4124 45.0296C42.1865 45.9848 43.5056 46.6672 43.915 46.8946Z" fill="white"/>
<path d="M50.4198 11.9591L45.1886 6H26.8111L21.5343 11.9591C21.5343 11.9591 16.9399 10.6854 14.7565 12.8688C14.7565 12.8688 20.8975 12.323 22.99 15.7346C22.99 15.7346 28.6761 16.8264 29.4494 16.8264C30.2227 16.8264 31.8603 16.1895 33.407 15.6892C34.9536 15.1888 35.9543 15.1888 35.9543 15.1888C35.9543 15.1888 36.9551 15.1888 38.5017 15.6892C40.0484 16.1895 41.686 16.8264 42.4593 16.8264C43.2326 16.8264 48.9187 15.7346 48.9187 15.7346C51.0112 12.323 57.1522 12.8688 57.1522 12.8688C55.0142 10.6854 50.4198 11.9591 50.4198 11.9591Z" fill="url(#paint1_linear)"/>
<defs>
<linearGradient id="paint0_linear" x1="10.4651" y1="35.9866" x2="61.5549" y2="35.9866" gradientUnits="userSpaceOnUse">
<stop stop-color="#FF5500"/>
<stop offset="0.41" stop-color="#FF5500"/>
<stop offset="0.582" stop-color="#FF2000"/>
<stop offset="1" stop-color="#FF2000"/>
</linearGradient>
<linearGradient id="paint1_linear" x1="15.7039" y1="11.3948" x2="57.2179" y2="11.3948" gradientUnits="userSpaceOnUse">
<stop stop-color="#FF452A"/>
<stop offset="1" stop-color="#FF2000"/>
</linearGradient>
</defs>
</svg>
