<svg width="72" height="72" viewBox="0 0 72 72" fill="none" xmlns="http://www.w3.org/2000/svg">
<path d="M6 23.8723C6 17.6164 6 14.4885 7.21748 12.099C8.28841 9.99723 9.99723 8.28841 12.099 7.21748C14.4885 6 17.6164 6 23.8723 6H48.1277C54.3836 6 57.5115 6 59.901 7.21748C62.0028 8.28841 63.7116 9.99723 64.7825 12.099C66 14.4885 66 17.6164 66 23.8723V48.1277C66 54.3836 66 57.5115 64.7825 59.901C63.7116 62.0028 62.0028 63.7116 59.901 64.7825C57.5115 66 54.3836 66 48.1277 66H23.8723C17.6164 66 14.4885 66 12.099 64.7825C9.99723 63.7116 8.28841 62.0028 7.21748 59.901C6 57.5115 6 54.3836 6 48.1277V23.8723Z" fill="#1C1F22"/>
<g clip-path="url(#clip0)">
<path d="M29.1263 57.25C32.9205 57.25 35.9999 54.0767 35.9999 50.1667V43.0833H29.1263C25.3321 43.0833 22.2527 46.2567 22.2527 50.1667C22.2527 54.0767 25.3321 57.25 29.1263 57.25Z" fill="#0ACF83"/>
<path d="M22.2527 36C22.2527 32.09 25.3321 28.9167 29.1263 28.9167H35.9999V43.0833H29.1263C25.3321 43.0833 22.2527 39.91 22.2527 36Z" fill="#A259FF"/>
<path d="M22.2526 21.8334C22.2526 17.9234 25.3319 14.75 29.1262 14.75H35.9998V28.9167H29.1262C25.3319 28.9167 22.2526 25.7434 22.2526 21.8334Z" fill="#F24E1E"/>
<path d="M36 14.75H42.8736C46.6679 14.75 49.7473 17.9234 49.7473 21.8334C49.7473 25.7434 46.6679 28.9167 42.8736 28.9167H36V14.75Z" fill="#FF7262"/>
<path d="M49.7473 36C49.7473 39.91 46.6679 43.0833 42.8736 43.0833C39.0794 43.0833 36 39.91 36 36C36 32.09 39.0794 28.9167 42.8736 28.9167C46.6679 28.9167 49.7473 32.09 49.7473 36Z" fill="#1ABCFE"/>
</g>
<defs>
<clipPath id="clip0">
<rect width="27.5" height="42.5" fill="white" transform="translate(22.25 14.75)"/>
</clipPath>
</defs>
</svg>
