<svg width="72" height="72" viewBox="0 0 72 72" fill="none" xmlns="http://www.w3.org/2000/svg">
<g clip-path="url(#clip0)">
<path d="M10.5 48.5L21 62.5L61.5 61V17.5L46.5 8L11.5 11.5L10.5 48.5Z" fill="white"/>
<path d="M28.0102 7.884C18.8899 8.56338 11.1366 9.18818 10.7721 9.26134C9.75 9.44484 8.8202 10.1428 8.38299 11.0614L8 11.8697L8.03691 31.134L8.09113 50.3982L8.67485 51.5921C9.00363 52.2529 11.2289 55.3386 13.6549 58.5148C18.4527 64.7768 18.7988 65.1263 20.6226 65.3098C21.1521 65.3644 25.1285 65.1809 29.4338 64.9242C33.7574 64.649 40.6882 64.2263 44.8481 63.9882C62.6145 62.9024 61.702 62.9941 62.723 62.1126C64 61.0477 63.9089 62.792 63.9631 39.3783C64 19.5264 63.9815 18.2234 63.6897 17.6172C63.3436 16.9378 62.723 16.4605 54.6236 10.7304C49.2063 6.9108 48.8233 6.70872 46.3962 6.67156C45.3937 6.63556 37.1121 7.18603 28.0102 7.884ZM48.513 10.3995C49.279 10.7479 54.8797 14.6778 55.6999 15.4315C55.9191 15.6522 55.9918 15.8357 55.8822 15.946C55.6272 16.1667 20.9675 18.242 19.9651 18.0945C19.5094 18.0213 18.8345 17.7461 18.4516 17.4883C16.8642 16.4047 12.9247 13.1541 12.9247 12.9161C12.9247 12.2913 12.7966 12.2913 28.2479 11.1717C31.2034 10.9697 36.0554 10.6027 39.0109 10.3635C45.4122 9.84898 47.3283 9.86756 48.513 10.3995ZM59.531 20.445C59.7859 20.7017 60.0051 21.1976 60.0778 21.6749C60.132 22.1162 60.1689 30.3431 60.132 39.9288C60.0778 56.3826 60.0593 57.4116 59.749 57.8889C59.5667 58.1827 59.2022 58.4951 58.9277 58.5868C58.1628 58.8992 21.8443 60.9745 21.0967 60.7539C20.7507 60.6621 20.2754 60.3683 20.0204 60.1117L19.5821 59.6344L19.5279 41.8949C19.4909 29.4442 19.5279 23.9348 19.6744 23.4389C19.7839 23.072 20.0574 22.6307 20.295 22.4843C20.6238 22.2637 22.7764 22.0802 30.1824 21.64C35.3817 21.3462 43.4257 20.8503 48.0412 20.5751C59.0199 19.8945 58.9842 19.8945 59.531 20.445Z" fill="black"/>
<path d="M49.7717 26.5235C47.8014 26.6524 46.0503 26.8359 45.8495 26.9462C45.2474 27.2586 44.8828 27.7731 44.8101 28.3607C44.7559 28.9669 44.9382 29.0401 46.9074 29.2793L47.7645 29.3897V37.231C47.7645 41.8949 47.6918 44.9806 47.6007 44.8889C47.5095 44.7785 44.9197 40.8126 41.8362 36.0743C38.7538 31.3186 36.1997 27.4061 36.1628 27.3701C36.1259 27.3329 34.1198 27.4433 31.7122 27.6093C28.7567 27.8114 27.1336 27.9949 26.8049 28.1784C26.2754 28.4536 25.6917 29.4268 25.6917 30.0702C25.6917 30.4558 26.385 30.6578 27.8443 30.6578H28.6102V53.2087L27.3701 53.5943C26.4034 53.8881 26.0746 54.0716 25.9108 54.4386C25.619 55.0634 25.6374 55.6324 25.9293 55.6324C26.0389 55.6324 28.1004 55.5035 30.471 55.3572C35.1592 55.0819 35.6875 54.953 36.1801 53.9798C36.3266 53.686 36.4535 53.3736 36.4535 53.2819C36.4535 53.2087 35.8156 52.988 35.0484 52.8046C34.264 52.6211 33.4796 52.4376 33.3157 52.4004C33.0054 52.3087 32.987 51.7396 32.987 43.8425V35.3764L38.5323 44.1363C44.351 53.3179 45.0812 54.3654 45.9753 54.8241C47.0885 55.4118 49.9159 55.0076 51.3383 54.0716L51.7767 53.7963L51.8136 41.2725L51.8678 28.73L52.8345 28.5465C53.9835 28.3259 54.513 27.794 54.513 26.8754C54.513 26.2877 54.4761 26.2506 53.9293 26.2691C53.6028 26.2842 51.7236 26.3946 49.7717 26.5235Z" fill="black"/>
</g>
<defs>
<clipPath id="clip0">
<rect width="56" height="60" fill="white" transform="translate(8 6)"/>
</clipPath>
</defs>
</svg>
