<svg width="72" height="72" viewBox="0 0 72 72" fill="none" xmlns="http://www.w3.org/2000/svg">
<g clip-path="url(#clip0)">
<path d="M43.766 6L24.746 16.512L17 33.27L28.742 60.282L45.41 66L48.464 59.88L54.8 21.834L43.766 6Z" fill="#34208C"/>
<path d="M54.8 21.834L43.064 14.646L26.858 27.42L45.41 66L48.464 59.88L54.8 21.834Z" fill="url(#paint0_linear)"/>
<path d="M54.8 21.834L43.766 6L43.064 14.646L54.8 21.834Z" fill="#AF9FF4"/>
<path d="M43.064 14.646L43.766 6L24.746 16.512L26.858 27.42L43.064 14.646Z" fill="#4A37A0"/>
<path d="M26.858 27.42L28.742 60.282L45.41 66L26.858 27.42Z" fill="#4A37A0"/>
</g>
<defs>
<linearGradient id="paint0_linear" x1="53.264" y1="54.336" x2="34.31" y2="9.042" gradientUnits="userSpaceOnUse">
<stop stop-color="#6C56CC"/>
<stop offset="1" stop-color="#9785E5"/>
</linearGradient>
<clipPath id="clip0">
<rect width="38" height="60" fill="white" transform="translate(17 6)"/>
</clipPath>
</defs>
</svg>
