<svg width="60" height="60" viewBox="0 0 60 60" fill="none" xmlns="http://www.w3.org/2000/svg">
<path fill-rule="evenodd" clip-rule="evenodd" d="M43.2072 40.0764L45 38.2832H21.7176V15L19.924 16.7932L16.5656 13.4348L13.4352 16.5656L16.794 19.9244L15 21.7176V25.3036L9.8484 20.152L6.7176 23.2832L15 31.5656V38.7388L3.1308 26.8696L0 30L30 60L33.1308 56.8696L21.2612 45H28.4348L36.7176 53.2832L39.8484 50.152L34.6964 45H38.2828L40.0764 43.2068L43.4352 46.5656L46.5656 43.4348L43.2072 40.0764ZM45 28.4348V34.6956L50.1524 39.8476L53.2828 36.7176L45 28.4348ZM23.2828 6.7176L20.1524 9.8476L25.3044 15H31.5656L23.2828 6.7176ZM30 0L26.87 3.1308L38.7392 15H45L30 0ZM60 30L56.87 33.1308L45 21.2608V15L60 30Z" fill="#FF6363"/>
</svg>
