<svg width="72" height="72" viewBox="0 0 72 72" fill="none" xmlns="http://www.w3.org/2000/svg">
<path d="M7.71473 27.0194C7.71473 27.0194 6.2944 25.9977 7.99879 24.6334L11.9698 21.0898C11.9698 21.0898 13.106 19.8968 14.3074 20.9362L50.9518 48.6235V61.9001C50.9518 61.9001 50.934 63.9849 48.2532 63.7546L7.71473 27.0194Z" fill="#2489CA"/>
<path d="M17.1599 35.5773L7.71468 44.1469C7.71468 44.1469 6.74413 44.8674 7.71468 46.1549L12.0999 50.1355C12.0999 50.1355 13.1415 51.2517 14.6802 49.982L24.6935 42.4046L17.1599 35.5773Z" fill="#1070B3"/>
<path d="M33.7423 35.6481L51.0644 22.4482L50.952 9.24245C50.952 9.24245 50.2122 6.36033 47.7444 7.86045L24.6936 28.7972L33.7423 35.6481Z" fill="#0877B9"/>
<path d="M48.2533 63.7724C49.2594 64.8 50.4785 64.4634 50.4785 64.4634L63.9775 57.8251C65.7056 56.6498 65.4629 55.191 65.4629 55.191V15.55C65.4629 13.8077 63.6757 13.2053 63.6757 13.2053L51.9758 7.57693C49.4192 6.00003 47.7444 7.86042 47.7444 7.86042C47.7444 7.86042 49.8985 6.31305 50.9519 9.24242V61.658C50.9519 62.0183 50.875 62.3727 50.7211 62.6916C50.4134 63.3117 49.7447 63.8905 48.1409 63.6484L48.2533 63.7724Z" fill="#3C99D4"/>
</svg>
